<svg height="512" viewBox="0 0 64 64" width="512" xmlns="http://www.w3.org/2000/svg"><g id="Fill_Outline" data-name="Fill Outline"><g id="Stroke_copy" data-name="Stroke copy"><g><g><path d="m53 9h-3v-6h3a3 3 0 0 1 3 3 3 3 0 0 1 -3 3z" fill="#e59730"/><path d="m18 3a4 4 0 0 0 -4 4v.482a14.3 14.3 0 0 1 -1.569 6.378 42.112 42.112 0 0 0 -4.431 18.802v28.338h42v-55a3 3 0 0 1 3-3z" fill="#f9e109"/><path d="m46 61h-38v-28.34a42.079 42.079 0 0 1 4.43-18.8 14.35 14.35 0 0 0 1.57-6.38v-.48a4 4 0 0 1 4-4h9a4 4 0 0 0 -4 4v.48a14.35 14.35 0 0 1 -1.57 6.38 42.079 42.079 0 0 0 -4.43 18.8 20.349 20.349 0 0 0 20.34 20.34h.66a8 8 0 0 1 8 8z" fill="#fcbc04"/><path d="m56 61h-12v-28.338a42.1 42.1 0 0 1 6-21.662 42.1 42.1 0 0 1 6 21.662z" fill="#e59730"/><path d="m56 32.66v28.34h-6v-50a42.247 42.247 0 0 1 4.47 10.42 42.037 42.037 0 0 1 1.53 11.24z" fill="#fcbc04"/><path d="m50 54-6 7h12z" fill="#f9e109"/><path d="m38 20h-21l2-6h21z" fill="#57b7eb"/><g fill="#4891d3"><path d="m21.36 14a42.464 42.464 0 0 0 -2.41 6h-1.95l2-6z"/><path d="m21.36 14a42.464 42.464 0 0 0 -2.41 6h-1.95l2-6z"/></g></g><g><path d="m16 47h20a0 0 0 0 1 0 0v2a4 4 0 0 1 -4 4h-12a4 4 0 0 1 -4-4v-2a0 0 0 0 1 0 0z" fill="#f89c8d"/><path d="m15 41h22a0 0 0 0 1 0 0v4a2 2 0 0 1 -2 2h-18a2 2 0 0 1 -2-2v-4a0 0 0 0 1 0 0z" fill="#cc5144"/><path d="m17 43h18a4 4 0 0 0 4-4 4 4 0 0 0 -4-4h-18a4 4 0 0 0 -4 4 4 4 0 0 0 4 4z" fill="#f89c8d"/><path d="m33.6 52.66a3.89 3.89 0 0 1 -1.6.34h-12a4 4 0 0 1 -4-4v-2h6.92l.04.04a20.33 20.33 0 0 0 10.64 5.62z" fill="#f8664f"/><path d="m22.92 47h-5.92a2.006 2.006 0 0 1 -2-2v-4h3.79a16.478 16.478 0 0 0 1.04 2 20.35 20.35 0 0 0 3.09 4z" fill="#ad4038"/><path d="m19.83 43h-2.83a3.989 3.989 0 0 1 -2-.54 4.225 4.225 0 0 1 -.83-.63 4 4 0 0 1 2.83-6.83h.14a19.843 19.843 0 0 0 1.65 6 16.478 16.478 0 0 0 1.04 2z" fill="#f8664f"/><path d="m28 51-4-4h6z" fill="#f8664f"/><path d="m22 51-4-4h6z" fill="#cc5144"/><path d="m35.64 50.64a3.988 3.988 0 0 1 -3.64 2.36h-12a4 4 0 0 1 -4-4v-2h2a4 4 0 0 0 4 4h12a3.931 3.931 0 0 0 1.64-.36z" fill="#f8664f"/><path d="m20 29h12a4 4 0 0 1 4 4v2a0 0 0 0 1 0 0h-20a0 0 0 0 1 0 0v-2a4 4 0 0 1 4-4z" fill="#f89c8d"/><path d="m23 51-4-4h6z" fill="#f9e109"/><path d="m29 51-4-4h6z" fill="#f7f754"/><path d="m28.038 48.038-1.038-1.038h-2l4 4 1.282-2.564a1.99 1.99 0 0 1 -2.244-.398z" fill="#f9e109"/><path d="m24 32a3.991 3.991 0 0 1 -3.859-3h-.141a4 4 0 0 0 -4 4v2h20v-2a3.977 3.977 0 0 0 -.141-1z" fill="#f8664f"/><path d="m16 36.95v-.95h20v1.24a2.282 2.282 0 0 1 -.46 1.37l-1.05 1.41a2.3 2.3 0 0 1 -3.35.34l-.94-.83a2.3 2.3 0 0 0 -3.25.22l-.34.39a2.293 2.293 0 0 1 -3.35.12l-.99-.99a2.286 2.286 0 0 0 -2.8-.35 2.289 2.289 0 0 1 -3.47-1.97z" fill="#f8664f"/><path d="m37 41a3.931 3.931 0 0 0 1.64-.36 3.988 3.988 0 0 1 -3.64 2.36h-18a3.995 3.995 0 0 1 -1.64-7.64 3.931 3.931 0 0 0 -.36 1.64 4 4 0 0 0 4 4z" fill="#f8664f"/><path d="m17.14 35h-1.14v-2a4.011 4.011 0 0 1 1.07-2.72c-.05.79-.07 1.59-.07 2.38a20.138 20.138 0 0 0 .14 2.34z" fill="#cc5144"/><path d="m24.35 48.3-1.35 2.7-4-4h3.92l.04.04a18.37 18.37 0 0 0 1.39 1.26z" fill="#fcbc04"/><g fill="#cc5144"><path d="m16 36.95v-.95h1.27a19.483 19.483 0 0 0 .83 3.24 2.279 2.279 0 0 1 -2.1-2.29z"/><path d="m17 43a3.995 3.995 0 0 1 -1.64-7.64 3.931 3.931 0 0 0 -.36 1.64 4 4 0 0 0 3.79 3.99 17.383 17.383 0 0 0 1.04 2.01z"/><path d="m33.61 52.66a3.972 3.972 0 0 1 -1.61.34h-12a4 4 0 0 1 -4-4v-2h2a4 4 0 0 0 4 4h6.54a20.368 20.368 0 0 0 5.07 1.66z"/><path d="m33.61 52.66a3.972 3.972 0 0 1 -1.61.34h-12a4 4 0 0 1 -4-4v-2h2a4 4 0 0 0 4 4h6.54a20.368 20.368 0 0 0 5.07 1.66z"/><path d="m18.1 39.24a2.279 2.279 0 0 1 -2.1-2.29v-.95h1.27a19.483 19.483 0 0 0 .83 3.24z"/><path d="m19.83 43h-2.83a3.995 3.995 0 0 1 -1.64-7.64 3.931 3.931 0 0 0 -.36 1.64 4 4 0 0 0 3.79 3.99 17.383 17.383 0 0 0 1.04 2.01z"/></g><path d="m19.469 37.92a2.29 2.29 0 0 1 2.8.346l.99.991a2.292 2.292 0 0 0 3.354-.121l.335-.387a2.291 2.291 0 0 1 3.248-.22l.945.832a2.291 2.291 0 0 0 3.347-.344l1.055-1.406a2.3 2.3 0 0 0 .457-1.375v-1.236h-20v.955a2.291 2.291 0 0 0 3.469 1.965z" fill="#a1d51c"/><path d="m36 35.24v1a2.282 2.282 0 0 1 -.46 1.37l-1.05 1.41a2.3 2.3 0 0 1 -3.35.34l-.94-.83a2.3 2.3 0 0 0 -3.25.22l-.34.39a2.293 2.293 0 0 1 -3.35.12l-.99-.99a2.286 2.286 0 0 0 -2.8-.35 2.289 2.289 0 0 1 -3.47-1.97v-.95h3.26a3.1 3.1 0 0 0 2.03 1.69 2.246 2.246 0 0 1 .98.58l.99.99a2.293 2.293 0 0 0 3.35-.12l.34-.39a2.287 2.287 0 0 1 3.24-.22l.95.83a2.3 2.3 0 0 0 3.35-.34l1.05-1.41a2.282 2.282 0 0 0 .46-1.37z" fill="#7ab92d"/></g></g></g><g id="Outline_copy" data-name="Outline copy"><g fill="#464a51"><path d="m40 60h-31v-12a1 1 0 0 0 -2 0v13a1 1 0 0 0 1 1h32a1 1 0 0 0 0-2z"/><path d="m51 10h2a4 4 0 0 0 0-8h-35a5.006 5.006 0 0 0 -5 5v.482a13.221 13.221 0 0 1 -1.463 5.931 43.327 43.327 0 0 0 -4.537 19.249v11.338a1 1 0 0 0 2 0v-11.338a41.307 41.307 0 0 1 4.327-18.356 15.208 15.208 0 0 0 1.673-6.824v-.482a3 3 0 0 1 3-3h31.537a3.97 3.97 0 0 0 -.537 2v4.742a43.11 43.11 0 0 0 -6 21.92v28.338a1 1 0 0 0 1 1h12a1 1 0 0 0 1-1v-18a1 1 0 0 0 -2 0v15.3l-4-4.666v-4.634a1 1 0 0 0 -2 0v4.631l-4 4.669v-25.638a41.112 41.112 0 0 1 4-17.662v10a1 1 0 0 0 2 0v-10a41.112 41.112 0 0 1 4 17.665v6.335a1 1 0 0 0 2 0v-6.338a43.11 43.11 0 0 0 -6-21.92zm-1 45.537 3.826 4.463h-7.652zm3-51.537a2 2 0 0 1 0 4h-2v-2a2 2 0 0 1 2-2z"/><path d="m50 30a1 1 0 0 0 -1 1v12a1 1 0 0 0 2 0v-12a1 1 0 0 0 -1-1z"/><path d="m15 34.424a4.972 4.972 0 0 0 -1 8.55v2.026a2.985 2.985 0 0 0 1 2.22v1.78a5.006 5.006 0 0 0 5 5h12a5.006 5.006 0 0 0 5-5v-1.78a2.985 2.985 0 0 0 1-2.22v-2.026a4.972 4.972 0 0 0 -1-8.55v-1.424a5.006 5.006 0 0 0 -5-5h-2a1 1 0 0 0 0 2h2a3 3 0 0 1 3 3v1h-18v-1a3 3 0 0 1 3-3h6a1 1 0 0 0 0-2h-6a5.006 5.006 0 0 0 -5 5zm20 1.576v.236a1.3 1.3 0 0 1 -.258.775l-1.055 1.406a1.291 1.291 0 0 1 -1.886.193l-.945-.832a3.292 3.292 0 0 0 -4.666.317l-.334.387a1.291 1.291 0 0 1 -1.89.068l-.99-.991a3.285 3.285 0 0 0 -4.021-.5 1.287 1.287 0 0 1 -1.949-1.059zm0 13a3 3 0 0 1 -3 3h-12a3 3 0 0 1 -3-3v-1h1.586l3.707 3.707a1 1 0 0 0 .707.293.959.959 0 0 0 .16-.013 1 1 0 0 0 .734-.54l1.38-2.759 3.019 3.019a1 1 0 0 0 .707.293.959.959 0 0 0 .16-.013 1 1 0 0 0 .734-.54l1.724-3.447h3.382zm-13.586-1h1.968l-.656 1.312zm6 0h1.968l-.656 1.312zm10.586-9a3 3 0 0 1 -3 3h-2a1 1 0 0 0 0 2h2a5 5 0 0 0 1-.1v1.1a1 1 0 0 1 -1 1h-18a1 1 0 0 1 -1-1v-1.1a5 5 0 0 0 1 .1h12a1 1 0 0 0 0-2h-12a2.987 2.987 0 0 1 -1.91-5.294 3.288 3.288 0 0 0 4.893 2.072 1.286 1.286 0 0 1 1.578.194l.99.992a3.293 3.293 0 0 0 4.818-.174l.331-.39a1.291 1.291 0 0 1 .89-.444 1.278 1.278 0 0 1 .941.32l.944.832a3.3 3.3 0 0 0 2.179.822c.112 0 .223-.006.335-.017a3.3 3.3 0 0 0 2.3-1.3l1.056-1.407a3.309 3.309 0 0 0 .615-1.464 2.979 2.979 0 0 1 1.04 2.258z"/><path d="m18.051 13.684-2 6a1 1 0 0 0 .949 1.316h21a1 1 0 0 0 .948-.684l2-6a1 1 0 0 0 -.948-1.316h-21a1 1 0 0 0 -.949.684zm20.561 1.316-1.333 4h-18.892l1.334-4z"/><path d="m21 23a1 1 0 0 0 0 2h12a1 1 0 0 0 0-2z"/><path d="m36 11a1 1 0 0 0 0-2h-12a1 1 0 0 0 0 2z"/></g></g></g></svg>