<svg id="Capa_1" enable-background="new 0 0 507.439 507.439" height="512" viewBox="0 0 507.439 507.439" width="512" xmlns="http://www.w3.org/2000/svg"><path id="XMLID_1068_" d="m507.439 347.304c0-35.414-20.94-66.024-51.086-80.114l-17.762-58.249h34.918v-82.011h-81.007l-22.546-75.93h-48.508v30h26.121l13.638 45.931h-77.27v30h59.738l16.887 113.763-50.405 81.368h-28.86v-108.13c0-28.305-23.028-51.333-51.333-51.333h-165.56v33.581c0 15.749 6.276 30.052 16.445 40.568-34.192 17.905-57.58 53.739-57.58 94.937v1.483l-23.269 41.8 26.212 14.592 20.874-37.498h2.612c-.12 1.674-.2 3.356-.2 5.048 0 38.229 31.102 69.33 69.331 69.33s69.33-31.102 69.33-69.33c0-1.731-.031-3.405-.111-5.048h132.404l43.012-11.322c-1.469 5.483-2.258 11.012-2.258 16.37 0 38.229 31.102 69.33 69.331 69.33s69.33-31.102 69.33-69.33c0-8.472-1.658-16.883-4.753-24.805h12.325zm-118.294-88.38-15.14-101.993h17.364l31.123 102.066c-1.14-.044-2.283-.073-3.433-.073zm54.364-101.994v22.011h-14.065l-6.712-22.011zm-58.949 131.994h34.498c27.008 0 49.791 18.434 56.428 43.381h-83.862l-40.549 10.674zm-133.262 63.137h-34.961c5.401-9.103 8.514-19.716 8.514-31.047v-5.377c0-11.331-3.113-21.943-8.514-31.047h34.961zm-128.482-97.47c-15.667 0-28.412-12.745-28.412-28.411v-3.581h135.561c11.763 0 21.333 9.57 21.333 21.333v10.659zm7.546 30h33.441c17.119 0 31.047 13.928 31.047 31.047v5.377c0 17.119-13.928 31.047-31.047 31.047h-109.936c4.751-37.985 37.245-67.471 76.495-67.471zm-11.532 141.848c-21.687 0-39.331-17.644-39.331-39.33 0-1.701.115-3.384.328-5.048h24.003v15.517h30v-15.517h24.154c.124 1.463.176 3.102.176 5.048 0 21.687-17.644 39.33-39.33 39.33zm351.038-39.33c0 21.687-17.644 39.33-39.33 39.33-21.687 0-39.331-17.644-39.331-39.33 0-8.047 3.506-17.291 9.196-24.805h15.134v32.067h30v-32.067h15.315c5.708 7.196 9.016 16.132 9.016 24.805z"/></svg>